# xmcd
#
# Track frame offsets:
#	182
#	8932
#	36925
#	55682
#	88217
#	112695
#	151755
#	175535
#	201847
#	218960
#	241942
#
# Disc length: 3431 seconds
#
# Revision: 6
# Processed by: cddbd v1.5.2PL0 Copyright (c) Steve Scherf et al.
# Submitted via: audiograbber 1.83.01
#
DISCID=830d650b
DTITLE=Silent Poets - to come....
DYEAR=1999
DGENRE=Ambient
TTITLE0=Fact
TTITLE1=Someday (feat Anomolies)
TTITLE2=I Will Miss This Holy Garden (Dub Version feat Virginia Astley)
TTITLE3=Where The Sidewalk Ends (feat Kirsty Hawkshaw)
TTITLE4=To Come...
TTITLE5=Prisons (feat Anomolies)
TTITLE6=The Corner
TTITLE7=Sugar Man (Piano And Strings Version feat Terry Hall)
TTITLE8=Come Raising (Dub Version)
TTITLE9=Save The Day (Dub Version feat Roba)
TTITLE10=Get Ready (feat Ursula Rucker)
EXTD=YEAR: 1999
EXTT0=
EXTT1=
EXTT2=
EXTT3=
EXTT4=
EXTT5=
EXTT6=
EXTT7=
EXTT8=
EXTT9=
EXTT10=
PLAYORDER=
